# xmcd
#
# Track frame offsets: 
#        150
#        14897
#        29597
#        45962
#        58660
#        73512
#        87125
#        99310
#        114687
#        126122
#
# Disc length: 1830 seconds
#
# Revision: 4
# Processed by: cddbd v1.5.1PL0 Copyright (c) Steve Scherf et al.
# Submitted via: ExactAudioCopy v0.95b3
#
DISCID=8307240a
DTITLE=Various Artist - Rock On, U.K.
DYEAR=1991
DGENRE=Rock
TTITLE0=The Hollies - Long Cool Woman (In A Black Dress)
TTITLE1=Donovan - Sunshine Superman
TTITLE2=Rod Steward - Little Miss Understood
TTITLE3=Small Faces - Itchycoo Park
TTITLE4=Argent - Hold Your Head Up
TTITLE5=Van Morrison - Brown Eyed Girl
TTITLE6=The Kinks - A Well Respected Man
TTITLE7=David Essex - Rock On
TTITLE8=The Animals - Blue Feeling
TTITLE9=The Yardbirds - For Your Love
EXTD=YEAR: 2001  ID3G:   0
EXTT0=
EXTT1=
EXTT2=
EXTT3=
EXTT4=
EXTT5=
EXTT6=
EXTT7=
EXTT8=
EXTT9=
PLAYORDER=
